<svg width="108" height="20" viewBox="0 0 108 20" fill="none" xmlns="http://www.w3.org/2000/svg">
<g opacity="0.95">
<path d="M6.77115 19.3412V19.1934C6.20935 18.3654 5.91367 17.0053 5.91367 15.4973V9.11055C5.91367 7.6617 7.0077 6.80422 8.24957 6.80422C9.60971 6.80422 10.4672 7.77997 10.4672 9.11055V15.4973C10.4672 17.0053 10.1715 18.3654 9.60971 19.1934V19.3412H16.1147V19.1934C15.553 18.3654 15.2573 17.0053 15.2573 15.4973V8.99227C15.2573 6.12414 13.4536 4.14307 10.6446 4.14307C8.36784 4.14307 6.80072 5.44407 6.06151 6.98163H5.91367V4.14307H5.76583L0 5.9763V6.12414C0.70964 6.86335 1.1236 7.80954 1.1236 9.70192V15.4973C1.1236 17.0053 0.827914 18.3654 0.266115 19.1934V19.3412H6.77115Z" fill="#2E216E"/>
<path d="M24.2095 19.7552C26.5159 19.7552 28.0534 18.4541 28.7926 16.9166H28.9405V19.7552H29.0883L34.8541 18.6611V18.5133C34.1445 17.8332 33.7306 16.8575 33.7306 14.9651V4.14307H33.5827L27.8169 5.9763V6.12414C28.5265 6.86335 28.9405 7.80954 28.9405 9.70192V14.7877C28.9405 16.2365 27.8465 17.094 26.575 17.094C25.2444 17.094 24.387 16.1182 24.387 14.7877V4.14307H24.2391L18.4733 5.9763V6.12414C19.1829 6.86335 19.5969 7.80954 19.5969 9.70192V14.9059C19.5969 17.7741 21.4006 19.7552 24.2095 19.7552Z" fill="#2E216E"/>
<path d="M44.0176 19.1934V19.3412H37.6308V19.1934C38.1926 18.3654 38.4883 17.0053 38.4883 15.4973V9.70192C38.4883 7.80954 38.0743 6.86335 37.3647 6.12414V5.9763L43.1305 4.14307H43.2784V6.98163H43.4262C44.195 5.35537 45.6734 4.14307 47.8615 4.14307C49.8425 4.14307 51.4392 5.26666 52.0306 7.07033H52.1784C52.8881 5.47364 54.3665 4.14307 56.5545 4.14307C59.2453 4.14307 61.0194 6.09458 61.0194 8.90357V15.4973C61.0194 17.0053 61.3151 18.3654 61.8768 19.1934V19.3412H55.4901V19.1934C56.0519 18.3654 56.2293 17.0053 56.2293 15.4973V9.14012C56.2293 7.77997 55.431 6.92249 54.2482 6.92249C53.0359 6.92249 52.1489 7.77997 52.1489 9.25839V15.4973C52.1489 17.0053 52.3263 18.3654 52.8881 19.1934V19.3412H46.6196V19.1934C47.2109 18.3654 47.3588 17.0053 47.3588 15.4973V9.14012C47.3588 7.77997 46.59 6.92249 45.4073 6.92249C44.195 6.92249 43.2784 7.77997 43.2784 9.25839V15.4973C43.2784 17.0053 43.4853 18.3654 44.0176 19.1934Z" fill="#2E216E"/>
<path fill-rule="evenodd" clip-rule="evenodd" d="M73.8208 16.3252C75.5949 16.3252 77.0142 15.4973 77.7534 14.1667H78.0491C77.3395 17.5671 74.767 19.7552 71.3075 19.7552C67.3454 19.7552 64.152 17.094 64.152 12.2448C64.152 7.36602 67.5524 4.14307 71.6919 4.14307C75.5949 4.14307 77.8717 6.80422 77.8717 9.84976H67.9663C68.3211 14.078 70.864 16.3252 73.8208 16.3252ZM73.259 9.14012C73.0816 6.71551 72.1059 4.97098 70.4501 4.97098C68.8534 4.97098 67.9367 6.39026 67.9367 8.874V9.14012H73.259Z" fill="#2E216E"/>
<path d="M86.9291 19.3412V19.1934C86.3673 18.3654 86.0716 17.0053 86.0716 15.4973V11.8013C86.0716 9.22882 87.1065 8.40091 89.5607 8.40091H91.453V4.14307C88.2597 4.14307 86.8108 5.91717 86.2194 8.54875H86.0716V4.14307H85.9238L80.1579 5.9763V6.12414C80.8676 6.86335 81.2815 7.80954 81.2815 9.70192V15.4973C81.2815 17.0053 80.9858 18.3654 80.4241 19.1934V19.3412H86.9291Z" fill="#2E216E"/>
<path d="M98.0954 19.4936V16.8504C97.71 15.6167 97.5328 13.9273 97.5328 11.9491C97.5328 9.97089 97.71 8.28147 98.0954 7.04785V4.40459C94.7774 5.25147 92.4471 8.08925 92.4471 11.9491C92.4471 15.809 94.7774 18.6467 98.0954 19.4936Z" fill="#2E216E"/>
<path d="M102.407 19.4792C105.696 18.6149 108 15.7873 108 11.9491C108 8.11091 105.696 5.28336 102.407 4.41903V7.20012C102.757 8.41892 102.914 10.0511 102.914 11.9491C102.914 13.8471 102.757 15.4793 102.407 16.6981V19.4792Z" fill="#2E216E"/>
</g>
<path opacity="0.95" d="M68.7583 0.244904C68.9293 1.57702 70.0404 2.57578 71.4262 2.57578C72.8119 2.57578 73.923 1.57702 74.094 0.244904H68.7583Z" fill="#BC5284"/>
</svg>
