<svg width="17" height="17" viewBox="0 0 17 17" fill="none" xmlns="http://www.w3.org/2000/svg">
<g opacity="0.4" clip-path="url(#clip0_1_2353)">
<path d="M2.98779 3.77348C2.98779 3.33166 3.34597 2.97348 3.78779 2.97348H13.3878C13.8296 2.97348 14.1878 3.33166 14.1878 3.77348V5.37348C14.1878 5.8153 13.8296 6.17348 13.3878 6.17348H3.78779C3.34597 6.17348 2.98779 5.8153 2.98779 5.37348V3.77348Z" fill="#666473"/>
<path d="M2.98779 8.5735C2.98779 8.13167 3.34597 7.7735 3.78779 7.7735H8.58779C9.02963 7.7735 9.38779 8.13167 9.38779 8.5735V13.3735C9.38779 13.8153 9.02963 14.1735 8.58779 14.1735H3.78779C3.34597 14.1735 2.98779 13.8153 2.98779 13.3735V8.5735Z" fill="#666473"/>
<path d="M11.7878 7.7735C11.346 7.7735 10.9878 8.13167 10.9878 8.5735V13.3735C10.9878 13.8153 11.346 14.1735 11.7878 14.1735H13.3878C13.8296 14.1735 14.1878 13.8153 14.1878 13.3735V8.5735C14.1878 8.13167 13.8296 7.7735 13.3878 7.7735H11.7878Z" fill="#666473"/>
</g>
<defs>
<clipPath id="clip0_1_2353">
<rect width="16" height="16" fill="white" transform="translate(0.587891 0.573486)"/>
</clipPath>
</defs>
</svg>
